<?xml version="1.0" encoding="utf-8"?>
<!-- Generator: Adobe Adobe Illustrator 24.2.0, SVG Export Plug-In . SVG Version: 6.00 Build 0)  -->
<svg version="1.1" xmlns="http://www.w3.org/2000/svg" xmlns:xlink="http://www.w3.org/1999/xlink" x="0px" y="0px"
	 viewBox="0 0 1920 1080" style="enable-background:new 0 0 1920 1080;" xml:space="preserve">
<style type="text/css">
	.st0{display:none;}
	.st1{display:inline;}
	.st2{fill:#00B3E3;}
	.st3{fill:#FFC843;}
	.st4{fill:#05CE7C;}
	.st5{fill:#DA3AB3;}
	.st6{fill:#042F57;}
	.st7{fill:#00299F;}
	.st8{fill:#FF4338;}
	.st9{fill:#002F32;}
	.st10{fill:#FF6B00;}
	.st11{fill:#DA1800;}
	.st12{fill:#05A221;}
	.st13{fill:#055600;}
	.st14{fill:#FFFFFF;}
</style>
<g id="Logo" class="st0">
	<g id="Border" class="st1">
		<g>
			<g>
				<path class="st2" d="M918.26,209.27c48.78,0,96.08,9.55,140.61,28.38c43.01,18.19,81.65,44.24,114.83,77.43
					c33.18,33.18,59.23,71.82,77.43,114.83c18.83,44.52,28.38,91.83,28.38,140.61s-9.55,96.08-28.38,140.61
					c-18.19,43.01-44.24,81.65-77.43,114.83c-33.18,33.18-71.82,59.23-114.83,77.43c-44.52,18.83-91.83,28.38-140.61,28.38
					s-96.08-9.55-140.61-28.38c-43.01-18.19-81.65-44.24-114.83-77.43c-33.18-33.18-59.23-71.82-77.43-114.83
					c-18.83-44.52-28.38-91.83-28.38-140.61s9.55-96.08,28.38-140.61c18.19-43.01,44.24-81.65,77.43-114.83
					c33.18-33.18,71.82-59.23,114.83-77.43C822.18,218.82,869.49,209.27,918.26,209.27 M918.26,188.27
					c-211.11,0-382.24,171.14-382.24,382.24s171.14,382.24,382.24,382.24s382.24-171.14,382.24-382.24S1129.37,188.27,918.26,188.27
					L918.26,188.27z"/>
			</g>
		</g>
	</g>
	<g id="Text" class="st1">
		<g>
			<g>
				<g>
					<polyline class="st3" points="1124.1,353.69 1007.41,804.59 1071.3,827.69 1187.99,376.79 1124.1,353.69 					"/>
				</g>
				<g>
					<path class="st2" d="M1210.74,692.94l-26.39-31.19l55.67-65.8c0.81-0.96,0.81-2.51,0-3.47l-55.66-65.79l26.39-31.19
						l55.66,65.79c15.36,18.15,15.36,47.7,0,65.85L1210.74,692.94z"/>
				</g>
			</g>
			<g>
				<g>
					<g>
						<path class="st2" d="M628.14,695.64l-57.54-69.05c-15.88-19.05-15.88-50.06,0-69.11l57.54-69.05l27.28,32.74l-57.54,69.05
							c-0.42,0.5-0.63,1.11-0.63,1.82c0,0.71,0.21,1.32,0.63,1.82l57.54,69.05L628.14,695.64z"/>
					</g>
				</g>
			</g>
			<g>
				<g>
					<g>
						<path class="st4" d="M808.89,526.68c-0.01,11.12-5.72,21.13-14.44,25.31v1.99h14.44V526.68"/>
						<path class="st5" d="M777.15,491.81h-14.44v34.88c0,9.07,3.81,17.55,10.18,22.63c6.36,5.07,14.44,6.08,21.56,2.68v-25.31
							c0,5.65-3.87,10.22-8.65,10.22c-4.78,0-8.65-4.58-8.65-10.22L777.15,491.81"/>
						<path class="st6" d="M808.89,491.81h-14.44v34.88v25.31c8.72-4.18,14.43-14.18,14.44-25.31V491.81"/>
					</g>
					<g>
						<path class="st5" d="M836.15,491.81H821.7v62.17v-39.05c0-10.44,5.92-19.59,14.44-22.33V491.81"/>
						<path class="st2" d="M841.27,491.81c-1.73,0-3.45,0.27-5.12,0.8v22.33c0-2.45,1.25-4.65,3.16-5.59
							c1.91-0.94,4.12-0.42,5.58,1.31l10.21-12.07C851.44,494.23,846.46,491.79,841.27,491.81"/>
						<path class="st7" d="M836.15,492.6c-8.52,2.74-14.44,11.89-14.44,22.33v39.05h14.44V492.6"/>
					</g>
					<g>
						<polyline class="st2" points="879.98,491.93 865.53,491.93 865.53,553.97 879.98,553.97 879.98,491.93 						"/>
						<polyline class="st8" points="879.98,455.5 865.53,455.5 865.53,473.52 879.98,473.52 879.98,455.5 						"/>
					</g>
					<g>
						<path class="st5" d="M907.2,491.81h-14.44v62.17V519.1c0.01-11.12,5.72-21.13,14.44-25.31V491.81"/>
						<path class="st4" d="M915.85,491.81c-2.96,0-5.9,0.67-8.65,1.99v25.31c0-5.65,3.87-10.22,8.65-10.22
							c4.78,0,8.65,4.58,8.65,10.22v34.88h14.44V519.1C938.93,504.04,928.6,491.83,915.85,491.81"/>
						<path class="st6" d="M907.2,493.79c-8.72,4.18-14.43,14.18-14.44,25.31v34.88h14.44V493.79"/>
					</g>
					<g>
						<path class="st8" d="M976.85,491.85c-10.04-0.01-19.2,6.75-23.61,17.41c-4.41,10.66-3.29,23.36,2.88,32.72
							c3.06-3.27,7.05-5.08,11.17-5.07h9.56c-6.54,0-11.84-6.26-11.84-13.99s5.3-13.99,11.84-13.99c6.54,0,11.84,6.26,11.84,13.99
							l0,0v-14.36c-0.01-4.01,1.21-7.89,3.43-10.91C987.66,493.87,982.32,491.84,976.85,491.85"/>
						<path class="st2" d="M1010.04,491.85h-7.22c-3.75-0.01-7.35,1.75-9.99,4.89c-0.25,0.29-0.48,0.59-0.71,0.9
							c6.91,5.83,11.01,15.24,11.01,25.27l0,0v-13.99h6.91V491.85 M1002.04,531.77c-3.33,13.16-13.57,22.18-25.19,22.2l0,0
							C988.47,553.95,998.7,544.93,1002.04,531.77 M956.11,541.98c-5.15,5.47-6.92,14.12-4.44,21.77
							c2.48,7.64,8.69,12.69,15.61,12.68h19.12c1.26,0,2.27,1.2,2.27,2.69c0,1.49-1.02,2.69-2.27,2.69h-16.78v17.07h16.78
							c9.23,0,16.72-8.85,16.72-19.76c0-10.91-7.49-19.76-16.72-19.76h-19.12c-1.26,0-2.28-1.2-2.28-2.69
							c0-1.49,1.02-2.69,2.28-2.69h9.56C968.74,553.97,961.08,549.54,956.11,541.98"/>
						<path class="st9" d="M992.11,497.64c-2.22,3.03-3.44,6.91-3.43,10.91v14.36c-0.01,7.72-5.3,13.98-11.84,13.99h-9.56
							c-4.13,0-8.11,1.8-11.17,5.07c4.97,7.57,12.63,12,20.74,12l0,0c11.42,0,21.54-8.72,25.03-21.58S1001.41,505.49,992.11,497.64"
							/>
					</g>
				</g>
			</g>
			<g>
				<g>
					<g>
						<path class="st2" d="M750.79,573.33h-16.48v0.22h16.48V573.33 M750.79,593.33h-16.48v74.64h16.48V593.33"/>
						<path class="st8" d="M757.93,667.96h-7.15v19.78h7.15V667.96 M734.31,667.96h-7.15v19.78h7.15V667.96"/>
						<polyline class="st9" points="750.79,667.96 734.31,667.96 734.31,687.74 750.79,687.74 750.79,667.96 						"/>
						<path class="st8" d="M757.93,573.54h-7.15v19.78h7.15V573.54 M734.31,573.54h-7.15v19.78h7.15V573.54"/>
						<polyline class="st9" points="750.79,573.54 734.31,573.54 734.31,593.32 750.79,593.32 750.79,573.54 						"/>
					</g>
					<g>
						<path class="st5" d="M789.03,615.61h-16.48v72.03v-40.41c0.01-12.89,6.53-24.48,16.48-29.32V615.61"/>
						<path class="st4" d="M798.9,615.61c-3.38,0-6.73,0.78-9.87,2.3v29.33c0-6.54,4.42-11.84,9.87-11.84
							c5.45,0,9.87,5.3,9.87,11.84v40.41h16.48v-40.41C825.23,629.78,813.45,615.64,798.9,615.61"/>
						<path class="st6" d="M789.03,617.91c-9.95,4.84-16.47,16.43-16.48,29.32v40.41h16.48V617.91"/>
					</g>
					<g>
						<path class="st5" d="M898.51,573.22h-16.48v46.3c10.1,6.13,16.48,18.55,16.48,32.13V573.22 M898.51,651.65
							c-0.01,13.58-6.38,26-16.48,32.13v3.86h16.48V651.65"/>
						<path class="st4" d="M868.51,615.66c-12.4,0-23.53,9.16-27.99,23.05c-4.46,13.89-1.34,29.64,7.86,39.63
							c9.2,9.99,22.57,12.15,33.64,5.45v-32.13c0,8.95-6.05,16.21-13.51,16.21c-7.46,0-13.51-7.26-13.51-16.21
							c0-8.95,6.05-16.21,13.51-16.21c7.46,0.01,13.5,7.26,13.51,16.21v-32.13C877.84,616.98,873.21,615.65,868.51,615.66"/>
						<path class="st6" d="M882.02,619.52v32.13v32.13c10.1-6.13,16.48-18.55,16.48-32.13l0,0
							C898.5,638.07,892.12,625.65,882.02,619.52"/>
					</g>
					<g>
						<path class="st10" d="M941.7,615.66c-16.56,0.02-29.98,16.12-29.99,35.99c0,20.18,13.58,35.99,30.91,35.99
							c8.94,0,16.12-3.42,23.97-11.45l-10.68-15.06c-4.87,4.97-8.67,6.34-13.61,6.34c-2.45,0.11-4.86-0.66-6.95-2.2l-0.54,0.27
							l-16.7,8.28c-3.12-4.7-5.18-10.29-5.99-16.22l16.92-8.39v-0.02c0.5-5.51,3.41-10.29,7.63-12.55c1.48-0.78,3.07-1.18,4.68-1.18
							c2.89,0.01,5.7,1.16,7.98,3.28c0.09,0.09,0.17,0.18,0.26,0.27l16.57-8.21c1.14,1.92,2.11,3.97,2.92,6.12
							C964.25,623.98,953.52,615.65,941.7,615.66 M969.09,636.97l0.03,0.08L969.09,636.97 M969.15,637.15l0.01,0.03L969.15,637.15
							 M969.22,637.32l0.01,0.03L969.22,637.32 M969.27,637.47l0.01,0.03L969.27,637.47 M972.57,646.83l-16.62,8.24L972.57,646.83"
							/>
						<path class="st5" d="M969.07,636.94l0.01,0.04L969.07,636.94 M969.12,637.05l0.03,0.09L969.12,637.05 M969.16,637.17
							l0.05,0.14L969.16,637.17 M969.22,637.34l0.04,0.12L969.22,637.34 M969.28,637.49l0.05,0.15l3.24,9.19l-3.24-9.19
							L969.28,637.49 M949.59,639.02l-10.19,5.05l-9.77,4.84l-0.6,0.3c-0.82,8.41,2.82,13.03,5.8,15.64
							c0.17,0.15,0.34,0.29,0.51,0.42l18.34-9.09l2.26-1.12C955.94,655.02,953.98,643.85,949.59,639.02"/>
						<path class="st11" d="M966.16,630.82l-16.57,8.21c4.39,4.82,6.35,15.99,6.36,16.04l16.62-8.24l-3.24-9.19l-0.05-0.15
							l-0.01-0.03l-0.04-0.12l-0.01-0.03l-0.05-0.14l-0.01-0.03l-0.03-0.09l-0.03-0.08l-0.01-0.04
							C968.27,634.79,967.3,632.74,966.16,630.82 M929.03,649.22l-16.92,8.39c0.81,5.93,2.87,11.52,5.99,16.22l16.7-8.28l0.54-0.27
							c-0.17-0.13-0.34-0.27-0.51-0.42C931.85,662.24,928.21,657.63,929.03,649.22"/>
					</g>
					<g>
						<path class="st3" d="M1027.38,651.65c-4.65,6.29-11.33,9.89-18.34,9.89s-13.68-3.6-18.34-9.89
							c-4.01,5.38-6.22,12.35-6.22,19.57v16.42h16.48v-16.42c0-5.35,3.61-9.68,8.07-9.68c4.46,0,8.07,4.33,8.07,9.68v16.42h16.48
							v-16.42C1033.6,664,1031.38,657.03,1027.38,651.65"/>
						<path class="st4" d="M1033.59,615.66h-16.48v16.41c0,5.35-3.61,9.68-8.07,9.68s-8.07-4.33-8.07-9.68v-16.41h-16.48v16.41
							c-0.01,7.22,2.21,14.19,6.22,19.57c4.65-6.29,11.33-9.89,18.34-9.89c7.01,0,13.68,3.6,18.34,9.89
							c4.01-5.38,6.22-12.35,6.22-19.57L1033.59,615.66"/>
						<path class="st12" d="M1009.04,641.76c-7.01,0-13.69,3.6-18.34,9.89c4.65,6.29,11.33,9.89,18.34,9.89
							c7.01,0,13.68-3.6,18.34-9.89C1022.72,645.36,1016.05,641.76,1009.04,641.76"/>
					</g>
				</g>
			</g>
			<g>
				<g>
					<polyline class="st10" points="712.73,488.97 676.31,488.97 676.31,694.95 712.73,694.95 712.73,488.97 					"/>
					<polyline class="st4" points="755.42,445.92 633.62,445.92 633.62,488.97 676.31,488.97 676.31,445.92 712.73,445.92 
						712.73,488.97 755.42,488.97 755.42,445.92 					"/>
					<polyline class="st13" points="712.73,445.92 676.31,445.92 676.31,488.97 712.73,488.97 712.73,445.92 					"/>
				</g>
			</g>
		</g>
	</g>
</g>
<g id="Layer_4">
	<g>
		<g>
			<path class="st14" d="M910.15,1081.55c-84.27,0-163.49-32.82-223.08-92.4c-59.59-59.59-92.4-138.81-92.4-223.08
				s32.82-163.49,92.4-223.08c59.59-59.59,138.81-92.4,223.08-92.4c84.27,0,163.49,32.82,223.08,92.4
				c59.59,59.59,92.4,138.81,92.4,223.08s-32.82,163.49-92.4,223.08S994.42,1081.55,910.15,1081.55z"/>
			<g>
				<path class="st2" d="M910.15,461.08c41.18,0,81.12,8.06,118.71,23.96c36.31,15.36,68.93,37.35,96.95,65.37
					c28.02,28.02,50.01,60.63,65.37,96.95c15.9,37.59,23.96,77.53,23.96,118.71s-8.06,81.12-23.96,118.71
					c-15.36,36.31-37.35,68.93-65.37,96.95c-28.02,28.02-60.63,50.01-96.95,65.37c-37.59,15.9-77.53,23.96-118.71,23.96
					s-81.12-8.06-118.71-23.96c-36.31-15.36-68.93-37.35-96.95-65.37c-28.02-28.02-50.01-60.63-65.37-96.95
					c-15.9-37.59-23.96-77.53-23.96-118.71s8.06-81.12,23.96-118.71c15.36-36.31,37.35-68.93,65.37-96.95
					c28.02-28.02,60.63-50.01,96.95-65.37C829.03,469.14,868.97,461.08,910.15,461.08 M910.15,440.08
					c-180.04,0-325.98,145.95-325.98,325.98s145.95,325.98,325.98,325.98s325.98-145.95,325.98-325.98S1090.19,440.08,910.15,440.08
					L910.15,440.08z"/>
			</g>
		</g>
		<g>
			<g>
				<g>
					<polyline class="st3" points="1085.69,581.16 986.18,965.69 1040.66,985.39 1140.18,600.86 1085.69,581.16 					"/>
				</g>
				<g>
					<path class="st2" d="M1159.58,870.47l-22.51-26.6l47.47-56.11c0.69-0.82,0.69-2.14,0-2.96l-47.47-56.11l22.51-26.6l47.47,56.11
						c13.1,15.48,13.1,40.68,0,56.16L1159.58,870.47z"/>
				</g>
			</g>
			<g>
				<g>
					<g>
						<path class="st2" d="M664.26,875.06l-50.14-60.16c-13.83-16.6-13.83-43.61,0-60.22l50.14-60.16l23.77,28.52l-50.14,60.17
							c-0.36,0.43-0.55,0.97-0.55,1.58c0,0.62,0.18,1.15,0.55,1.58l50.14,60.17L664.26,875.06z"/>
					</g>
				</g>
			</g>
			<g>
				<g>
					<g>
						<path class="st4" d="M816.89,728.68c-0.01,9.49-4.88,18.02-12.32,21.58v1.69h12.32V728.68"/>
						<path class="st5" d="M789.82,698.93H777.5v29.75c0,7.74,3.25,14.97,8.68,19.3c5.43,4.33,12.32,5.18,18.39,2.29v-21.58
							c0,4.81-3.3,8.72-7.38,8.72s-7.38-3.9-7.38-8.72L789.82,698.93"/>
						<path class="st6" d="M816.89,698.93h-12.32v29.75v21.58c7.44-3.56,12.31-12.1,12.32-21.58V698.93"/>
					</g>
					<g>
						<path class="st5" d="M840.14,698.93h-12.32v53.03v-33.3c0-8.91,5.05-16.71,12.32-19.04V698.93"/>
						<path class="st2" d="M844.51,698.93c-1.47,0-2.94,0.23-4.37,0.68v19.04c0-2.09,1.06-3.97,2.7-4.77
							c1.63-0.8,3.51-0.36,4.76,1.12l8.71-10.3C853.18,701,848.93,698.92,844.51,698.93"/>
						<path class="st7" d="M840.14,699.61c-7.27,2.34-12.32,10.14-12.32,19.04v33.3h12.32V699.61"/>
					</g>
					<g>
						<polyline class="st2" points="877.52,699.04 865.2,699.04 865.2,751.96 877.52,751.96 877.52,699.04 						"/>
						<polyline class="st8" points="877.52,667.97 865.2,667.97 865.2,683.34 877.52,683.34 877.52,667.97 						"/>
					</g>
					<g>
						<path class="st5" d="M900.75,698.93h-12.32v53.03v-29.75c0.01-9.49,4.88-18.02,12.32-21.58V698.93"/>
						<path class="st4" d="M908.12,698.93c-2.53,0-5.03,0.57-7.38,1.69v21.59c0-4.82,3.3-8.72,7.38-8.72s7.38,3.9,7.38,8.72v29.75
							h12.32v-29.75C927.81,709.36,919,698.95,908.12,698.93"/>
						<path class="st6" d="M900.75,700.63c-7.44,3.56-12.31,12.1-12.32,21.58v29.75h12.32V700.63"/>
					</g>
					<g>
						<path class="st8" d="M960.15,698.97c-8.56-0.01-16.38,5.76-20.14,14.85c-3.76,9.09-2.81,19.92,2.45,27.91
							c2.61-2.79,6.01-4.33,9.53-4.33h8.16c-5.58,0-10.1-5.34-10.1-11.93c0-6.59,4.52-11.93,10.1-11.93s10.1,5.34,10.1,11.93l0,0
							v-12.25c-0.01-3.42,1.03-6.73,2.93-9.31C969.37,700.69,964.82,698.96,960.15,698.97"/>
						<path class="st2" d="M988.46,698.97h-6.16c-3.2-0.01-6.27,1.49-8.52,4.17c-0.21,0.25-0.41,0.51-0.61,0.77
							c5.89,4.97,9.39,13,9.39,21.55l0,0v-11.93h5.9V698.97 M981.63,733.02c-2.84,11.23-11.57,18.92-21.49,18.94l0,0
							C970.06,751.94,978.79,744.25,981.63,733.02 M942.46,741.72c-4.39,4.66-5.9,12.05-3.78,18.57
							c2.11,6.52,7.41,10.82,13.31,10.82h16.31c1.07,0,1.94,1.03,1.94,2.29c0,1.27-0.87,2.29-1.94,2.29h-14.32v14.56h14.32
							c7.88,0,14.26-7.55,14.26-16.86s-6.38-16.86-14.26-16.86h-16.31c-1.07,0-1.94-1.03-1.94-2.29s0.87-2.29,1.94-2.29h8.16
							C953.23,751.96,946.7,748.18,942.46,741.72"/>
						<path class="st9" d="M973.17,703.91c-1.9,2.58-2.94,5.89-2.93,9.31v12.24c-0.01,6.59-4.52,11.93-10.1,11.93h-8.16
							c-3.52,0-6.92,1.54-9.53,4.33c4.24,6.46,10.77,10.23,17.69,10.23l0,0c9.74,0,18.37-7.44,21.35-18.41
							C984.47,722.58,981.1,710.6,973.17,703.91"/>
					</g>
				</g>
			</g>
			<g>
				<g>
					<g>
						<path class="st2" d="M767.87,767.56h-14.36v0.19h14.36V767.56 M767.87,784.99h-14.36v65.03h14.36V784.99"/>
						<path class="st8" d="M774.1,850.02h-6.23v17.24h6.23V850.02 M753.51,850.02h-6.23v17.24h6.23V850.02"/>
						<polyline class="st9" points="767.87,850.02 753.51,850.02 753.51,867.25 767.87,867.25 767.87,850.02 						"/>
						<path class="st8" d="M774.1,767.75h-6.23v17.24h6.23V767.75 M753.51,767.75h-6.23v17.24h6.23V767.75"/>
						<polyline class="st9" points="767.87,767.75 753.51,767.75 753.51,784.99 767.87,784.99 767.87,767.75 						"/>
					</g>
					<g>
						<path class="st5" d="M801.19,804.41h-14.36v62.76v-35.21c0.01-11.23,5.69-21.33,14.36-25.55V804.41"/>
						<path class="st4" d="M809.79,804.41c-2.95,0-5.87,0.68-8.6,2.01v25.55c0-5.7,3.85-10.32,8.6-10.32c4.75,0,8.6,4.62,8.6,10.32
							v35.21h14.36v-35.21C832.74,816.75,822.46,804.43,809.79,804.41"/>
						<path class="st6" d="M801.19,806.41c-8.67,4.22-14.35,14.32-14.36,25.55v35.21h14.36V806.41"/>
					</g>
					<g>
						<path class="st5" d="M896.58,767.47h-14.36v40.34c8.8,5.34,14.36,16.16,14.36,28V767.47 M896.58,835.81
							c-0.01,11.83-5.56,22.66-14.36,28v3.36h14.36V835.81"/>
						<path class="st4" d="M870.45,804.45c-10.81,0-20.5,7.98-24.39,20.08c-3.89,12.1-1.17,25.83,6.85,34.53
							c8.01,8.7,19.66,10.59,29.31,4.74v-28c0,7.8-5.27,14.12-11.77,14.12s-11.77-6.32-11.77-14.12c0-7.8,5.27-14.12,11.77-14.12
							c6.5,0.01,11.76,6.33,11.77,14.12v-28C878.57,805.6,874.54,804.44,870.45,804.45"/>
						<path class="st6" d="M882.22,807.81v28v28c8.8-5.34,14.36-16.16,14.36-28l0,0C896.57,823.98,891.02,813.15,882.22,807.81"/>
					</g>
					<g>
						<path class="st10" d="M934.21,804.45c-14.43,0.02-26.12,14.05-26.13,31.36c0,17.58,11.83,31.36,26.94,31.36
							c7.79,0,14.04-2.98,20.89-9.98l-9.31-13.13c-4.24,4.33-7.55,5.53-11.86,5.53c-2.13,0.09-4.24-0.57-6.06-1.92l-0.47,0.23
							l-14.55,7.21c-2.72-4.1-4.51-8.96-5.22-14.13l14.74-7.31v-0.02c0.44-4.8,2.97-8.97,6.65-10.93c1.29-0.68,2.68-1.03,4.08-1.02
							c2.52,0,4.97,1.01,6.96,2.86c0.08,0.08,0.15,0.16,0.22,0.24l14.43-7.15c0.99,1.67,1.84,3.46,2.54,5.34
							C953.86,811.7,944.51,804.44,934.21,804.45 M958.08,823.02l0.03,0.07L958.08,823.02 M958.14,823.17l0.01,0.03L958.14,823.17
							 M958.19,823.32l0.01,0.02L958.19,823.32 M958.24,823.45l0.01,0.02L958.24,823.45 M961.11,831.6l-14.48,7.18L961.11,831.6"/>
						<path class="st5" d="M958.07,822.99l0.01,0.03L958.07,822.99 M958.1,823.08l0.03,0.08L958.1,823.08 M958.14,823.19l0.04,0.12
							L958.14,823.19 M958.2,823.34l0.04,0.11L958.2,823.34 M958.24,823.47l0.04,0.13l2.82,8l-2.82-8L958.24,823.47 M941.09,824.81
							l-8.88,4.4l-8.51,4.22l-0.52,0.26c-0.71,7.33,2.45,11.35,5.05,13.63c0.15,0.13,0.29,0.25,0.44,0.37l15.98-7.92l1.97-0.98
							C946.62,838.74,944.91,829.01,941.09,824.81"/>
						<path class="st11" d="M955.52,817.65l-14.43,7.15c3.82,4.2,5.53,13.94,5.54,13.98l14.48-7.18l-2.82-8l-0.04-0.13l-0.01-0.02
							l-0.04-0.11l-0.01-0.02l-0.04-0.12l-0.01-0.03l-0.03-0.08l-0.03-0.07l-0.01-0.03C957.37,821.12,956.52,819.33,955.52,817.65
							 M923.18,833.69l-14.74,7.31c0.71,5.17,2.5,10.03,5.22,14.13l14.55-7.21l0.47-0.23c-0.15-0.12-0.3-0.24-0.44-0.37
							C925.63,845.04,922.46,841.02,923.18,833.69"/>
					</g>
					<g>
						<path class="st3" d="M1008.87,835.81c-4.05,5.48-9.87,8.62-15.98,8.62s-11.92-3.14-15.98-8.62
							c-3.49,4.69-5.42,10.76-5.42,17.05v14.31h14.36v-14.31c0-4.66,3.15-8.44,7.03-8.44c3.88,0,7.03,3.78,7.03,8.44v14.31h14.36
							v-14.31C1014.29,846.57,1012.36,840.5,1008.87,835.81"/>
						<path class="st4" d="M1014.28,804.45h-14.36v14.3c0,4.66-3.15,8.44-7.03,8.44c-3.88,0-7.03-3.78-7.03-8.44v-14.3H971.5v14.3
							c0,6.29,1.92,12.36,5.42,17.05c4.05-5.48,9.87-8.62,15.98-8.62c6.11,0,11.92,3.14,15.98,8.62c3.49-4.69,5.42-10.76,5.42-17.05
							L1014.28,804.45"/>
						<path class="st12" d="M992.89,827.19c-6.11,0-11.92,3.13-15.98,8.62c4.05,5.48,9.87,8.62,15.98,8.62s11.92-3.14,15.98-8.62
							C1004.81,830.32,999,827.19,992.89,827.19"/>
					</g>
				</g>
			</g>
			<g>
				<g>
					<polyline class="st10" points="734.87,696.53 703.8,696.53 703.8,872.19 734.87,872.19 734.87,696.53 					"/>
					<polyline class="st4" points="771.27,659.82 667.4,659.82 667.4,696.53 703.8,696.53 703.8,659.82 734.87,659.82 
						734.87,696.53 771.27,696.53 771.27,659.82 					"/>
					<polyline class="st13" points="734.87,659.82 703.8,659.82 703.8,696.53 734.87,696.53 734.87,659.82 					"/>
				</g>
			</g>
		</g>
	</g>
</g>
</svg>
