<?xml version="1.0" encoding="utf-8"?>
<!-- Generator: Adobe Adobe Illustrator 24.2.0, SVG Export Plug-In . SVG Version: 6.00 Build 0)  -->
<svg version="1.1" id="Layer_1" xmlns="http://www.w3.org/2000/svg" xmlns:xlink="http://www.w3.org/1999/xlink" x="0px" y="0px"
	 viewBox="0 0 1728 1296" style="enable-background:new 0 0 1728 1296;" xml:space="preserve">
<style type="text/css">
	.st0{fill:#FFC843;}
	.st1{fill:#00B3E3;}
	.st2{fill:#05CE7C;}
	.st3{fill:#DA3AB3;}
	.st4{fill:#042F57;}
	.st5{fill:#00299F;}
	.st6{fill:#FF4338;}
	.st7{fill:#002F32;}
	.st8{fill:#FF6B00;}
	.st9{fill:#DA1800;}
	.st10{fill:#05A221;}
	.st11{fill:#055600;}
</style>
<g>
	<g>
		<polyline class="st0" points="818.38,422.85 736.96,706.32 781.54,720.85 862.96,437.37 818.38,422.85 		"/>
	</g>
	<g>
		<path class="st1" d="M892.12,688.4L864,657.21l59.32-65.8c0.86-0.96,0.86-2.51,0-3.47L864,522.15l28.12-31.19l59.31,65.79
			c16.36,18.15,16.36,47.7,0,65.85L892.12,688.4z"/>
	</g>
</g>
<g>
	<g>
		<g>
			<path class="st1" d="M132.14,687.51l-57.54-69.05c-15.88-19.05-15.88-50.06,0-69.11l57.54-69.05l27.28,32.74l-57.54,69.05
				c-0.42,0.5-0.63,1.11-0.63,1.82c0,0.71,0.21,1.32,0.63,1.82l57.54,69.05L132.14,687.51z"/>
		</g>
	</g>
</g>
<g>
	<g>
		<g>
			<path class="st2" d="M308.13,532c-0.01,11.12-6.1,21.13-15.39,25.31v1.99h15.39V532"/>
			<path class="st3" d="M274.31,497.13h-15.39V532c0,9.07,4.06,17.55,10.85,22.63c6.78,5.07,15.39,6.08,22.97,2.68V532
				c0,5.65-4.13,10.22-9.21,10.22s-9.21-4.58-9.21-10.22L274.31,497.13"/>
			<path class="st4" d="M308.13,497.13h-15.39V532v25.31c9.29-4.18,15.38-14.18,15.39-25.31V497.13"/>
		</g>
		<g>
			<path class="st3" d="M337.18,497.13h-15.39v62.17v-39.05c0-10.44,6.31-19.59,15.39-22.33V497.13"/>
			<path class="st1" d="M342.63,497.13c-1.84,0-3.68,0.27-5.45,0.8v22.33c0-2.45,1.33-4.65,3.37-5.59c2.04-0.94,4.39-0.42,5.94,1.31
				l10.88-12.07C353.47,499.55,348.16,497.11,342.63,497.13"/>
			<path class="st5" d="M337.18,497.92c-9.08,2.74-15.39,11.89-15.39,22.33v39.05h15.39V497.92"/>
		</g>
		<g>
			<polyline class="st1" points="383.88,497.25 368.49,497.25 368.49,559.29 383.88,559.29 383.88,497.25 			"/>
			<polyline class="st6" points="383.88,460.82 368.49,460.82 368.49,478.84 383.88,478.84 383.88,460.82 			"/>
		</g>
		<g>
			<path class="st3" d="M412.9,497.13H397.5v62.17v-34.87c0.01-11.12,6.1-21.13,15.39-25.31V497.13"/>
			<path class="st2" d="M422.11,497.13c-3.16,0-6.29,0.67-9.22,1.99v25.31c0-5.65,4.13-10.22,9.21-10.22s9.21,4.58,9.21,10.22v34.88
				h15.39v-34.88C446.7,509.35,435.69,497.15,422.11,497.13"/>
			<path class="st4" d="M412.9,499.11c-9.29,4.18-15.38,14.18-15.39,25.31v34.88h15.39V499.11"/>
		</g>
		<g>
			<path class="st6" d="M487.1,497.17c-10.7-0.01-20.46,6.75-25.16,17.41c-4.7,10.66-3.51,23.36,3.06,32.72
				c3.26-3.27,7.51-5.08,11.91-5.07h10.19c-6.97,0-12.61-6.26-12.61-13.99s5.65-13.99,12.61-13.99c6.97,0,12.61,6.26,12.61,13.99
				l0,0v-14.36c-0.01-4.01,1.29-7.89,3.66-10.91C498.63,499.19,492.94,497.16,487.1,497.17"/>
			<path class="st1" d="M522.47,497.17h-7.7c-4-0.01-7.83,1.75-10.65,4.89c-0.26,0.29-0.52,0.59-0.76,0.9
				c7.36,5.83,11.73,15.24,11.73,25.27l0,0v-13.99h7.37V497.17 M513.95,537.09c-3.55,13.16-14.46,22.18-26.84,22.2l0,0
				C499.49,559.27,510.4,550.25,513.95,537.09 M465.01,547.29c-5.49,5.47-7.37,14.12-4.73,21.77c2.64,7.64,9.26,12.69,16.63,12.68
				h20.38c1.34,0,2.42,1.2,2.42,2.69c0,1.49-1.09,2.69-2.42,2.69h-17.89v17.07h17.89c9.84,0,17.82-8.85,17.82-19.76
				c0-10.91-7.98-19.76-17.82-19.76h-20.38c-1.34,0-2.42-1.2-2.42-2.69c0-1.49,1.09-2.69,2.42-2.69h10.19
				C478.46,559.29,470.31,554.86,465.01,547.29"/>
			<path class="st7" d="M503.37,502.96c-2.37,3.03-3.67,6.91-3.66,10.91v14.36c-0.01,7.72-5.65,13.98-12.61,13.99h-10.19
				c-4.4,0-8.64,1.8-11.91,5.07c5.3,7.57,13.45,12,22.1,12l0,0c12.17,0,22.95-8.72,26.67-21.58
				C517.49,524.85,513.28,510.8,503.37,502.96"/>
		</g>
	</g>
</g>
<g>
	<g>
		<g>
			<path class="st1" d="M436.32,571.24h-16.48v0.22h16.48V571.24 M436.32,591.24h-16.48v74.64h16.48V591.24"/>
			<path class="st6" d="M443.46,665.88h-7.15v19.78h7.15V665.88 M419.83,665.88h-7.15v19.78h7.15V665.88"/>
			<polyline class="st7" points="436.32,665.88 419.83,665.88 419.83,685.66 436.32,685.66 436.32,665.88 			"/>
			<path class="st6" d="M443.46,571.46h-7.15v19.78h7.15V571.46 M419.83,571.46h-7.15v19.78h7.15V571.46"/>
			<polyline class="st7" points="436.32,571.46 419.83,571.46 419.83,591.24 436.32,591.24 436.32,571.46 			"/>
		</g>
		<g>
			<path class="st3" d="M474.55,613.53h-16.48v72.03v-40.41c0.01-12.89,6.53-24.48,16.48-29.32V613.53"/>
			<path class="st2" d="M484.42,613.53c-3.38,0-6.73,0.78-9.87,2.3v29.33c0-6.54,4.42-11.84,9.87-11.84s9.87,5.3,9.87,11.84v40.41
				h16.48v-40.41C510.76,627.7,498.97,613.55,484.42,613.53"/>
			<path class="st4" d="M474.55,615.83c-9.95,4.84-16.47,16.43-16.48,29.32v40.41h16.48V615.83"/>
		</g>
		<g>
			<path class="st3" d="M584.03,571.14h-16.48v46.3c10.1,6.13,16.48,18.55,16.48,32.13V571.14 M584.03,649.57
				c-0.01,13.58-6.38,26-16.48,32.13v3.86h16.48V649.57"/>
			<path class="st2" d="M554.04,613.58c-12.4,0-23.53,9.16-27.99,23.05c-4.46,13.89-1.34,29.64,7.86,39.63
				c9.2,9.99,22.57,12.15,33.64,5.45v-32.13c0,8.95-6.05,16.21-13.51,16.21c-7.46,0-13.51-7.26-13.51-16.21
				c0-8.95,6.05-16.21,13.51-16.21c7.46,0.01,13.5,7.26,13.51,16.21v-32.13C563.36,614.89,558.73,613.57,554.04,613.58"/>
			<path class="st4" d="M567.55,617.44v32.13v32.13c10.1-6.13,16.48-18.55,16.48-32.13l0,0
				C584.02,635.99,577.65,623.56,567.55,617.44"/>
		</g>
		<g>
			<path class="st8" d="M627.23,613.58c-16.56,0.02-29.98,16.12-29.99,35.99c0,20.18,13.58,35.99,30.91,35.99
				c8.94,0,16.12-3.42,23.97-11.45l-10.68-15.06c-4.87,4.97-8.67,6.34-13.61,6.34c-2.45,0.11-4.86-0.66-6.95-2.2l-0.54,0.27
				l-16.7,8.28c-3.12-4.7-5.18-10.29-5.99-16.22l16.92-8.39v-0.02c0.5-5.51,3.41-10.29,7.63-12.55c1.48-0.78,3.07-1.18,4.68-1.18
				c2.89,0.01,5.7,1.16,7.98,3.28c0.09,0.09,0.17,0.18,0.26,0.27l16.57-8.21c1.14,1.92,2.11,3.97,2.92,6.12
				C649.78,621.9,639.05,613.56,627.23,613.58 M654.62,634.89l0.03,0.08L654.62,634.89 M654.68,635.06l0.01,0.03L654.68,635.06
				 M654.74,635.24l0.01,0.03L654.74,635.24 M654.8,635.38l0.01,0.03L654.8,635.38 M658.09,644.74l-16.62,8.24L658.09,644.74"/>
			<path class="st3" d="M654.6,634.85l0.01,0.04L654.6,634.85 M654.64,634.96l0.03,0.09L654.64,634.96 M654.69,635.09l0.05,0.14
				L654.69,635.09 M654.75,635.26l0.04,0.12L654.75,635.26 M654.8,635.41l0.05,0.15l3.24,9.19l-3.24-9.19L654.8,635.41
				 M635.12,636.94l-10.19,5.05l-9.77,4.84l-0.6,0.3c-0.82,8.41,2.82,13.03,5.8,15.64c0.17,0.15,0.34,0.29,0.51,0.42l18.34-9.09
				l2.26-1.12C641.46,652.93,639.5,641.77,635.12,636.94"/>
			<path class="st9" d="M651.68,628.73l-16.57,8.21c4.39,4.82,6.35,15.99,6.36,16.04l16.62-8.24l-3.24-9.19l-0.05-0.15l-0.01-0.03
				l-0.04-0.12l-0.01-0.03l-0.05-0.14l-0.01-0.03l-0.03-0.09l-0.03-0.08l-0.01-0.04C653.8,632.7,652.82,630.65,651.68,628.73
				 M614.56,647.13l-16.92,8.39c0.81,5.93,2.87,11.52,5.99,16.22l16.7-8.28l0.54-0.27c-0.17-0.13-0.34-0.27-0.51-0.42
				C617.38,660.16,613.74,655.55,614.56,647.13"/>
		</g>
		<g>
			<path class="st0" d="M712.9,649.57c-4.65,6.29-11.33,9.89-18.34,9.89s-13.68-3.6-18.34-9.89c-4.01,5.38-6.22,12.35-6.22,19.57
				v16.42h16.48v-16.42c0-5.35,3.61-9.68,8.07-9.68c4.46,0,8.07,4.33,8.07,9.68v16.42h16.48v-16.42
				C719.12,661.92,716.91,654.95,712.9,649.57"/>
			<path class="st2" d="M719.12,613.58h-16.48v16.41c0,5.35-3.61,9.68-8.07,9.68s-8.07-4.33-8.07-9.68v-16.41h-16.48v16.41
				c-0.01,7.22,2.21,14.19,6.22,19.57c4.65-6.29,11.33-9.89,18.34-9.89c7.01,0,13.68,3.6,18.34,9.89
				c4.01-5.38,6.22-12.35,6.22-19.57L719.12,613.58"/>
			<path class="st10" d="M694.57,639.68c-7.01,0-13.69,3.6-18.34,9.89c4.65,6.29,11.33,9.89,18.34,9.89c7.01,0,13.68-3.6,18.34-9.89
				C708.25,643.27,701.58,639.67,694.57,639.68"/>
		</g>
	</g>
</g>
<g>
	<g>
		<polyline class="st8" points="239.67,482.43 200.86,482.43 200.86,688.4 239.67,688.4 239.67,482.43 		"/>
		<polyline class="st2" points="285.15,439.38 155.37,439.38 155.37,482.43 200.86,482.43 200.86,439.38 239.67,439.38 
			239.67,482.43 285.15,482.43 285.15,439.38 		"/>
		<polyline class="st11" points="239.67,439.38 200.86,439.38 200.86,482.43 239.67,482.43 239.67,439.38 		"/>
	</g>
</g>
</svg>
