<?xml version="1.0" encoding="utf-8"?>
<!-- Generator: Adobe Adobe Illustrator 24.2.0, SVG Export Plug-In . SVG Version: 6.00 Build 0)  -->
<svg version="1.1" id="Layer_1" xmlns="http://www.w3.org/2000/svg" xmlns:xlink="http://www.w3.org/1999/xlink" x="0px" y="0px"
	 viewBox="0 0 1920 1080" style="enable-background:new 0 0 1920 1080;" xml:space="preserve">
<style type="text/css">
	.st0{fill:#00B3E3;}
	.st1{fill:#FFC843;}
	.st2{fill:#05CE7C;}
	.st3{fill:#DA3AB3;}
	.st4{fill:#042F57;}
	.st5{fill:#00299F;}
	.st6{fill:#FF4338;}
	.st7{fill:#002F32;}
	.st8{fill:#FF6B00;}
	.st9{fill:#DA1800;}
	.st10{fill:#05A221;}
	.st11{fill:#055600;}
</style>
<g id="Layer_2">
</g>
<g id="Layer_4">
	<g>
		<g>
			<path class="st0" d="M918.26,209.27c48.78,0,96.08,9.55,140.61,28.38c43.01,18.19,81.65,44.24,114.83,77.43
				c33.18,33.18,59.23,71.82,77.43,114.83c18.83,44.52,28.38,91.83,28.38,140.61s-9.55,96.08-28.38,140.61
				c-18.19,43.01-44.24,81.65-77.43,114.83c-33.18,33.18-71.82,59.23-114.83,77.43c-44.52,18.83-91.83,28.38-140.61,28.38
				s-96.08-9.55-140.61-28.38c-43.01-18.19-81.65-44.24-114.83-77.43c-33.18-33.18-59.23-71.82-77.43-114.83
				c-18.83-44.52-28.38-91.83-28.38-140.61s9.55-96.08,28.38-140.61c18.19-43.01,44.24-81.65,77.43-114.83
				c33.18-33.18,71.82-59.23,114.83-77.43C822.18,218.82,869.49,209.27,918.26,209.27 M918.26,188.27
				c-211.11,0-382.24,171.14-382.24,382.24s171.14,382.24,382.24,382.24s382.24-171.14,382.24-382.24S1129.37,188.27,918.26,188.27
				L918.26,188.27z"/>
		</g>
	</g>
</g>
<g id="Layer_3">
	<g>
		<g>
			<g>
				<polyline class="st1" points="1124.1,353.69 1007.41,804.59 1071.3,827.69 1187.99,376.79 1124.1,353.69 				"/>
			</g>
			<g>
				<path class="st0" d="M1210.74,692.94l-26.39-31.19l55.67-65.8c0.81-0.96,0.81-2.51,0-3.47l-55.66-65.79l26.39-31.19l55.66,65.79
					c15.36,18.15,15.36,47.7,0,65.85L1210.74,692.94z"/>
			</g>
		</g>
		<g>
			<g>
				<g>
					<path class="st0" d="M628.14,695.64l-57.54-69.05c-15.88-19.05-15.88-50.06,0-69.11l57.54-69.05l27.28,32.74l-57.54,69.05
						c-0.42,0.5-0.63,1.11-0.63,1.82c0,0.71,0.21,1.32,0.63,1.82l57.54,69.05L628.14,695.64z"/>
				</g>
			</g>
		</g>
		<g>
			<g>
				<g>
					<path class="st2" d="M808.89,526.68c-0.01,11.12-5.72,21.13-14.44,25.31v1.99h14.44V526.68"/>
					<path class="st3" d="M777.15,491.81h-14.44v34.88c0,9.07,3.81,17.55,10.18,22.63c6.36,5.07,14.44,6.08,21.56,2.68v-25.31
						c0,5.65-3.87,10.22-8.65,10.22c-4.78,0-8.65-4.58-8.65-10.22L777.15,491.81"/>
					<path class="st4" d="M808.89,491.81h-14.44v34.88v25.31c8.72-4.18,14.43-14.18,14.44-25.31V491.81"/>
				</g>
				<g>
					<path class="st3" d="M836.15,491.81H821.7v62.17v-39.05c0-10.44,5.92-19.59,14.44-22.33V491.81"/>
					<path class="st0" d="M841.27,491.81c-1.73,0-3.45,0.27-5.12,0.8v22.33c0-2.45,1.25-4.65,3.16-5.59
						c1.91-0.94,4.12-0.42,5.58,1.31l10.21-12.07C851.44,494.23,846.46,491.79,841.27,491.81"/>
					<path class="st5" d="M836.15,492.6c-8.52,2.74-14.44,11.89-14.44,22.33v39.05h14.44V492.6"/>
				</g>
				<g>
					<polyline class="st0" points="879.98,491.93 865.53,491.93 865.53,553.97 879.98,553.97 879.98,491.93 					"/>
					<polyline class="st6" points="879.98,455.5 865.53,455.5 865.53,473.52 879.98,473.52 879.98,455.5 					"/>
				</g>
				<g>
					<path class="st3" d="M907.2,491.81h-14.44v62.17V519.1c0.01-11.12,5.72-21.13,14.44-25.31V491.81"/>
					<path class="st2" d="M915.85,491.81c-2.96,0-5.9,0.67-8.65,1.99v25.31c0-5.65,3.87-10.22,8.65-10.22
						c4.78,0,8.65,4.58,8.65,10.22v34.88h14.44V519.1C938.93,504.04,928.6,491.83,915.85,491.81"/>
					<path class="st4" d="M907.2,493.79c-8.72,4.18-14.43,14.18-14.44,25.31v34.88h14.44V493.79"/>
				</g>
				<g>
					<path class="st6" d="M976.85,491.85c-10.04-0.01-19.2,6.75-23.61,17.41c-4.41,10.66-3.29,23.36,2.88,32.72
						c3.06-3.27,7.05-5.08,11.17-5.07h9.56c-6.54,0-11.84-6.26-11.84-13.99s5.3-13.99,11.84-13.99c6.54,0,11.84,6.26,11.84,13.99
						l0,0v-14.36c-0.01-4.01,1.21-7.89,3.43-10.91C987.66,493.87,982.32,491.84,976.85,491.85"/>
					<path class="st0" d="M1010.04,491.85h-7.22c-3.75-0.01-7.35,1.75-9.99,4.89c-0.25,0.29-0.48,0.59-0.71,0.9
						c6.91,5.83,11.01,15.24,11.01,25.27l0,0v-13.99h6.91V491.85 M1002.04,531.77c-3.33,13.16-13.57,22.18-25.19,22.2l0,0
						C988.47,553.95,998.7,544.93,1002.04,531.77 M956.11,541.98c-5.15,5.47-6.92,14.12-4.44,21.77
						c2.48,7.64,8.69,12.69,15.61,12.68h19.12c1.26,0,2.27,1.2,2.27,2.69c0,1.49-1.02,2.69-2.27,2.69h-16.78v17.07h16.78
						c9.23,0,16.72-8.85,16.72-19.76c0-10.91-7.49-19.76-16.72-19.76h-19.12c-1.26,0-2.28-1.2-2.28-2.69c0-1.49,1.02-2.69,2.28-2.69
						h9.56C968.74,553.97,961.08,549.54,956.11,541.98"/>
					<path class="st7" d="M992.11,497.64c-2.22,3.03-3.44,6.91-3.43,10.91v14.36c-0.01,7.72-5.3,13.98-11.84,13.99h-9.56
						c-4.13,0-8.11,1.8-11.17,5.07c4.97,7.57,12.63,12,20.74,12l0,0c11.42,0,21.54-8.72,25.03-21.58S1001.41,505.49,992.11,497.64"
						/>
				</g>
			</g>
		</g>
		<g>
			<g>
				<g>
					<path class="st0" d="M750.79,573.33h-16.48v0.22h16.48V573.33 M750.79,593.33h-16.48v74.64h16.48V593.33"/>
					<path class="st6" d="M757.93,667.96h-7.15v19.78h7.15V667.96 M734.31,667.96h-7.15v19.78h7.15V667.96"/>
					<polyline class="st7" points="750.79,667.96 734.31,667.96 734.31,687.74 750.79,687.74 750.79,667.96 					"/>
					<path class="st6" d="M757.93,573.54h-7.15v19.78h7.15V573.54 M734.31,573.54h-7.15v19.78h7.15V573.54"/>
					<polyline class="st7" points="750.79,573.54 734.31,573.54 734.31,593.32 750.79,593.32 750.79,573.54 					"/>
				</g>
				<g>
					<path class="st3" d="M789.03,615.61h-16.48v72.03v-40.41c0.01-12.89,6.53-24.48,16.48-29.32V615.61"/>
					<path class="st2" d="M798.9,615.61c-3.38,0-6.73,0.78-9.87,2.3v29.33c0-6.54,4.42-11.84,9.87-11.84c5.45,0,9.87,5.3,9.87,11.84
						v40.41h16.48v-40.41C825.23,629.78,813.45,615.64,798.9,615.61"/>
					<path class="st4" d="M789.03,617.91c-9.95,4.84-16.47,16.43-16.48,29.32v40.41h16.48V617.91"/>
				</g>
				<g>
					<path class="st3" d="M898.51,573.22h-16.48v46.3c10.1,6.13,16.48,18.55,16.48,32.13V573.22 M898.51,651.65
						c-0.01,13.58-6.38,26-16.48,32.13v3.86h16.48V651.65"/>
					<path class="st2" d="M868.51,615.66c-12.4,0-23.53,9.16-27.99,23.05c-4.46,13.89-1.34,29.64,7.86,39.63
						c9.2,9.99,22.57,12.15,33.64,5.45v-32.13c0,8.95-6.05,16.21-13.51,16.21c-7.46,0-13.51-7.26-13.51-16.21
						c0-8.95,6.05-16.21,13.51-16.21c7.46,0.01,13.5,7.26,13.51,16.21v-32.13C877.84,616.98,873.21,615.65,868.51,615.66"/>
					<path class="st4" d="M882.02,619.52v32.13v32.13c10.1-6.13,16.48-18.55,16.48-32.13l0,0
						C898.5,638.07,892.12,625.65,882.02,619.52"/>
				</g>
				<g>
					<path class="st8" d="M941.7,615.66c-16.56,0.02-29.98,16.12-29.99,35.99c0,20.18,13.58,35.99,30.91,35.99
						c8.94,0,16.12-3.42,23.97-11.45l-10.68-15.06c-4.87,4.97-8.67,6.34-13.61,6.34c-2.45,0.11-4.86-0.66-6.95-2.2l-0.54,0.27
						l-16.7,8.28c-3.12-4.7-5.18-10.29-5.99-16.22l16.92-8.39v-0.02c0.5-5.51,3.41-10.29,7.63-12.55c1.48-0.78,3.07-1.18,4.68-1.18
						c2.89,0.01,5.7,1.16,7.98,3.28c0.09,0.09,0.17,0.18,0.26,0.27l16.57-8.21c1.14,1.92,2.11,3.97,2.92,6.12
						C964.25,623.98,953.52,615.65,941.7,615.66 M969.09,636.97l0.03,0.08L969.09,636.97 M969.15,637.15l0.01,0.03L969.15,637.15
						 M969.22,637.32l0.01,0.03L969.22,637.32 M969.27,637.47l0.01,0.03L969.27,637.47 M972.57,646.83l-16.62,8.24L972.57,646.83"/>
					<path class="st3" d="M969.07,636.94l0.01,0.04L969.07,636.94 M969.12,637.05l0.03,0.09L969.12,637.05 M969.16,637.17l0.05,0.14
						L969.16,637.17 M969.22,637.34l0.04,0.12L969.22,637.34 M969.28,637.49l0.05,0.15l3.24,9.19l-3.24-9.19L969.28,637.49
						 M949.59,639.02l-10.19,5.05l-9.77,4.84l-0.6,0.3c-0.82,8.41,2.82,13.03,5.8,15.64c0.17,0.15,0.34,0.29,0.51,0.42l18.34-9.09
						l2.26-1.12C955.94,655.02,953.98,643.85,949.59,639.02"/>
					<path class="st9" d="M966.16,630.82l-16.57,8.21c4.39,4.82,6.35,15.99,6.36,16.04l16.62-8.24l-3.24-9.19l-0.05-0.15l-0.01-0.03
						l-0.04-0.12l-0.01-0.03l-0.05-0.14l-0.01-0.03l-0.03-0.09l-0.03-0.08l-0.01-0.04C968.27,634.79,967.3,632.74,966.16,630.82
						 M929.03,649.22l-16.92,8.39c0.81,5.93,2.87,11.52,5.99,16.22l16.7-8.28l0.54-0.27c-0.17-0.13-0.34-0.27-0.51-0.42
						C931.85,662.24,928.21,657.63,929.03,649.22"/>
				</g>
				<g>
					<path class="st1" d="M1027.38,651.65c-4.65,6.29-11.33,9.89-18.34,9.89s-13.68-3.6-18.34-9.89
						c-4.01,5.38-6.22,12.35-6.22,19.57v16.42h16.48v-16.42c0-5.35,3.61-9.68,8.07-9.68c4.46,0,8.07,4.33,8.07,9.68v16.42h16.48
						v-16.42C1033.6,664,1031.38,657.03,1027.38,651.65"/>
					<path class="st2" d="M1033.59,615.66h-16.48v16.41c0,5.35-3.61,9.68-8.07,9.68s-8.07-4.33-8.07-9.68v-16.41h-16.48v16.41
						c-0.01,7.22,2.21,14.19,6.22,19.57c4.65-6.29,11.33-9.89,18.34-9.89c7.01,0,13.68,3.6,18.34,9.89
						c4.01-5.38,6.22-12.35,6.22-19.57L1033.59,615.66"/>
					<path class="st10" d="M1009.04,641.76c-7.01,0-13.69,3.6-18.34,9.89c4.65,6.29,11.33,9.89,18.34,9.89
						c7.01,0,13.68-3.6,18.34-9.89C1022.72,645.36,1016.05,641.76,1009.04,641.76"/>
				</g>
			</g>
		</g>
		<g>
			<g>
				<polyline class="st8" points="712.73,488.97 676.31,488.97 676.31,694.95 712.73,694.95 712.73,488.97 				"/>
				<polyline class="st2" points="755.42,445.92 633.62,445.92 633.62,488.97 676.31,488.97 676.31,445.92 712.73,445.92 
					712.73,488.97 755.42,488.97 755.42,445.92 				"/>
				<polyline class="st11" points="712.73,445.92 676.31,445.92 676.31,488.97 712.73,488.97 712.73,445.92 				"/>
			</g>
		</g>
	</g>
</g>
</svg>
