<?xml version="1.0" encoding="utf-8"?>
<!-- Generator: Adobe Illustrator 25.0.0, SVG Export Plug-In . SVG Version: 6.00 Build 0)  -->
<svg version="1.1" xmlns="http://www.w3.org/2000/svg" xmlns:xlink="http://www.w3.org/1999/xlink" x="0px" y="0px"
	 viewBox="0 0 1098.4 702" style="enable-background:new 0 0 1098.4 702;" xml:space="preserve">
<style type="text/css">
	.st0{fill:none;stroke:#000000;stroke-width:0.25;stroke-miterlimit:10;}
	.st1{fill:none;}
	.st2{fill:none;stroke:#000000;stroke-width:2;stroke-miterlimit:10;}
	.st3{display:none;}
	.st4{display:inline;}
	.st5{fill:none;stroke:#FFFFFF;stroke-width:3;stroke-miterlimit:10;}
</style>
<g id="Layer_3">
	<line class="st0" x1="0" y1="174.7" x2="896" y2="174.7"/>
	<line class="st0" x1="882.3" y1="1" x2="882.5" y2="190.2"/>
	<line class="st0" x1="672.5" y1="1" x2="672.5" y2="181"/>
	<line class="st0" x1="461" y1="1" x2="461" y2="181"/>
	<line class="st0" x1="253.2" y1="1.5" x2="253.2" y2="181"/>
	<line class="st0" x1="0" y1="406" x2="214.6" y2="406"/>
	<line class="st0" x1="209.4" y1="292.3" x2="209.4" y2="416.2"/>
	<line class="st0" x1="104.5" y1="287.3" x2="104.5" y2="416.2"/>
	<line class="st0" x1="131.7" y1="481.5" x2="131.8" y2="700"/>
	<line class="st0" x1="263.2" y1="478.2" x2="263.2" y2="700"/>
	<line class="st0" x1="439.5" y1="481.5" x2="439.5" y2="700"/>
	<line class="st0" x1="568.3" y1="481.5" x2="569.1" y2="700"/>
	<line class="st0" x1="279.9" y1="311.9" x2="682.6" y2="311.9"/>
	<line class="st0" x1="348.5" y1="301.5" x2="348.5" y2="406"/>
	<line class="st0" x1="324.2" y1="389.1" x2="896" y2="389.1"/>
	<line class="st0" x1="873.5" y1="297.1" x2="873.5" y2="411.2"/>
	<line class="st0" x1="0" y1="490" x2="892.8" y2="490"/>
	<line class="st0" x1="0" y1="297.1" x2="220.4" y2="297.1"/>
	<path class="st0" d="M285.2,319.1c0-40.7,24.6-73.7,54.9-73.7"/>
	<line class="st0" x1="676.7" y1="297.1" x2="676.7" y2="406"/>
</g>
<g id="Layer_2">
	<rect x="8.6" y="6.9" class="st1" width="231.9" height="153.2"/>
	<rect x="267.3" y="6.9" class="st1" width="181.7" height="153.2"/>
	<rect x="471.6" y="6.9" class="st1" width="193.4" height="153.2"/>
	<rect x="682.6" y="6.9" class="st1" width="191" height="153.2"/>
	<rect x="896.9" y="6.9" class="st1" width="190.9" height="153.2"/>
	<rect x="585.4" y="490.9" class="st1" width="288.1" height="200"/>
	<rect x="449" y="490.9" class="st1" width="109.7" height="200"/>
	<rect x="273.2" y="490.9" class="st1" width="153.2" height="200"/>
	<rect x="141.7" y="490.9" class="st1" width="111.4" height="200"/>
	<rect x="8.6" y="490" class="st1" width="116" height="200.9"/>
</g>
<g id="Layer_1">
	<g id="Layer_1_1_">
		<g id="Layer_1_2_">
			<g id="XMLID_2_">
				<g>
				</g>
				<g>
					<path class="st2" d="M283.3,311.9c0-34.9,21.4-63.2,47.8-63.2"/>
					<polyline class="st2" points="346.5,388.9 369.6,388.9 674.8,388.9 871.5,388.9 					"/>
					<polyline class="st2" points="283.3,311.9 346.5,311.9 674.8,311.9 					"/>
					<polyline class="st2" points="207.4,405.8 102.9,405.8 -2,405.8 					"/>
					<line class="st2" x1="102.6" y1="297" x2="102.9" y2="405.8"/>
					<line class="st2" x1="207.4" y1="297" x2="207.4" y2="405.8"/>
					<line class="st2" x1="261.2" y1="699.8" x2="261.2" y2="489.8"/>
					<line class="st2" x1="129.8" y1="699.8" x2="129.7" y2="489.8"/>
					<line class="st2" x1="437.8" y1="489.8" x2="437.5" y2="699.8"/>
					<line class="st2" x1="874.2" y1="490.7" x2="872.8" y2="701.2"/>
					<line class="st2" x1="251.2" y1="174.5" x2="251.2" y2="1.3"/>
					<line class="st2" x1="459.9" y1="174" x2="459" y2="0.8"/>
					<line class="st2" x1="670.5" y1="0.8" x2="670.5" y2="174"/>
					<line class="st2" x1="880.3" y1="0.8" x2="880.9" y2="174"/>
					<polyline class="st2" points="871.5,311.8 871.5,388.9 871.5,389.9 					"/>
					<polyline class="st2" points="674.8,312.9 674.8,388.9 674.8,389.8 					"/>
					<line class="st2" x1="567.2" y1="699.8" x2="568.2" y2="489.8"/>
					<line class="st2" x1="1095" y1="700.6" x2="1095" y2="699.8"/>
					<polyline class="st2" points="346.5,389.9 346.5,388.9 346.5,312.8 					"/>
				</g>
			</g>
		</g>
		<g id="Layer_1_3_" class="st3">
			<g id="XMLID_3_" class="st4">
				<g>
				</g>
				<g>
					<path class="st2" d="M287.9,314.6c0-6,0.6-11.9,1.7-17.6c7.3-36.8,36.9-64.3,72.4-64.3"/>
					<line class="st2" x1="372.7" y1="375.1" x2="374.7" y2="298.9"/>
					<polyline class="st2" points="317,375.1 341.6,375.1 372.7,375.1 681,375.1 877,375.1 					"/>
					<polyline class="st2" points="289.5,297 289.6,297 374.7,297 681,297 					"/>
					<path class="st2" d="M7.9,174h58.4C46.2,173.5,28,174,7.9,174z"/>
					<line class="st2" x1="123" y1="0.8" x2="123" y2="174"/>
					<polyline class="st2" points="256.6,174 253,174 186,174 					"/>
					<polyline class="st2" points="219.5,298.9 112.1,298.9 10.1,298.9 					"/>
					<polyline class="st2" points="112.1,297 112.1,298.9 112.4,405.8 					"/>
					<polyline class="st2" points="219.5,297 219.5,298.9 219.5,405.8 					"/>
					<line class="st2" x1="91.1" y1="489.8" x2="5" y2="489.8"/>
					<polyline class="st2" points="132,489.8 135.1,489.8 219,489.8 					"/>
					<line class="st2" x1="262" y1="489.8" x2="266.6" y2="489.8"/>
					<line class="st2" x1="266.6" y1="699.8" x2="266.6" y2="489.8"/>
					<line class="st2" x1="135.2" y1="699.8" x2="135.1" y2="489.8"/>
					<polyline class="st2" points="266.6,489.8 271.3,489.8 389,489.8 					"/>
					<polyline class="st2" points="440,489.8 443.2,489.8 528.8,489.8 					"/>
					<line class="st2" x1="443.2" y1="489.8" x2="443" y2="699.8"/>
					<polyline class="st2" points="570.1,489.8 573.6,489.8 661.7,489.8 					"/>
					<line class="st2" x1="889.2" y1="490.7" x2="887.7" y2="701.2"/>
					<line class="st2" x1="253" y1="174" x2="253" y2="0.8"/>
					<polyline class="st2" points="307.4,174 465.3,174 466.2,174 					"/>
					<line class="st2" x1="465.3" y1="174" x2="464.5" y2="0.8"/>
					<line class="st2" x1="519" y1="174.5" x2="676" y2="174"/>
					<polyline class="st2" points="676,0.8 676,174 676,174 					"/>
					<line class="st2" x1="735.5" y1="174" x2="886.3" y2="174"/>
					<line class="st2" x1="885.7" y1="0.8" x2="886.3" y2="174"/>
					<line class="st2" x1="1096.4" y1="174.5" x2="940.1" y2="174.5"/>
					<line class="st2" x1="877" y1="297" x2="877" y2="375.1"/>
					<line class="st2" x1="681" y1="297" x2="681" y2="373.9"/>
					<line class="st2" x1="572.6" y1="699.8" x2="573.6" y2="489.8"/>
					<line class="st2" x1="1100.4" y1="700.6" x2="1100.4" y2="699.8"/>
					<line class="st2" x1="889.2" y1="490.7" x2="793.3" y2="489.8"/>
				</g>
			</g>
		</g>
	</g>
	<g id="Layer_2_1_" class="st3">
		
			<image style="display:inline;overflow:visible;opacity:0.11;enable-background:new    ;" width="1135" height="753" xlink:href="51E33B9010201CA5.jpg"  transform="matrix(1 0 0 1 166.4008 -291.8649)">
		</image>
	</g>
	<line class="st1" x1="180" y1="145" x2="178.6" y2="145"/>
	<line class="st5" x1="195" y1="217.2" x2="195" y2="217.2"/>
	<g>
		<g>
			<path d="M394.4,337.3h-7.8v-2.6h18.6v2.6h-7.8v21.1h-3V337.3z"/>
			<path d="M409.5,351.7v-10.9h3v10.5c0,3.3,1.2,4.9,4,4.9c2,0,3.5-0.9,5.4-3.2v-12.1h3v17.5h-2.5l-0.3-3.1H422
				c-1.8,2.1-3.8,3.5-6.5,3.5C411.4,358.8,409.5,356.3,409.5,351.7z"/>
			<path d="M433.5,340.9h2.5l0.3,4.1h0.1c1.8-2.8,4.6-4.6,7.8-4.6c1.3,0,2.4,0.2,3.5,0.7l-0.7,2.6c-1.2-0.4-1.9-0.6-3.2-0.6
				c-2.6,0-5.1,1.3-7.2,5v10.2h-3V340.9z"/>
			<path d="M461.2,343.3h-8.1v-2.4h11.1v17.5h-3V343.3z M460.1,334.9c0-1.4,1-2.3,2.4-2.3s2.4,0.9,2.4,2.3c0,1.4-1,2.3-2.4,2.3
				S460.1,336.3,460.1,334.9z"/>
			<path d="M474.9,340.9h2.4l0.3,3h0.1c1.8-1.9,3.9-3.4,6.6-3.4c4.1,0,6,2.4,6,7.1v10.9h-3v-10.5c0-3.3-1.2-4.9-4-4.9
				c-2.1,0-3.5,1-5.5,3.1v12.2h-3V340.9z"/>
			<path d="M495.7,361.6c0-1.4,1-2.8,2.9-3.9v-0.1c-0.9-0.5-1.8-1.4-1.8-2.9c0-1.1,0.8-2.4,2.1-3.3v-0.1c-1.2-0.9-2.2-2.4-2.2-4.5
				c0-3.8,3.2-6.3,6.9-6.3c1,0,1.8,0.1,2.6,0.4h7.2v2.4h-4.5c0.8,0.8,1.5,2.1,1.5,3.5c0,3.7-3,6-6.8,6c-0.9,0-2-0.2-3-0.6
				c-0.9,0.5-1.4,1.2-1.4,2c0,1.4,1.3,2,3.6,2h3.9c4.5,0,6.7,1.2,6.7,4.1c0,3.3-3.8,6.1-9.7,6.1
				C498.6,366.4,495.7,364.7,495.7,361.6z M510.6,360.8c0-1.7-1.3-2.1-4-2.1h-3.4c-1,0-1.9-0.1-2.7-0.3c-1.7,0.9-2.2,1.9-2.2,2.9
				c0,1.8,2,3,5.7,3C508,364.3,510.6,362.6,510.6,360.8z M507.6,346.7c0-2.4-1.8-4.1-4-4.1c-2.2,0-4,1.7-4,4.1c0,2.5,1.8,4.1,4,4.1
				C505.8,350.8,507.6,349.2,507.6,346.7z"/>
			<path d="M539.7,355.8h5.9v-18.5h-5.9v-2.6h14.8v2.6h-5.9v18.5h5.9v2.6h-14.8V355.8z"/>
			<path d="M561.3,340.9h2.4l0.3,3h0.1c1.8-1.9,3.9-3.4,6.6-3.4c4.1,0,6,2.4,6,7.1v10.9h-3v-10.5c0-3.3-1.2-4.9-4-4.9
				c-2.1,0-3.5,1-5.5,3.1v12.2h-3V340.9z"/>
			<path d="M581.7,349.6c0-5.7,3.8-9.2,7.9-9.2c2.1,0,3.7,0.8,5.3,2.2h0.1l-0.1-3.2v-6.7h3v25.6h-2.4l-0.3-2.3h-0.1
				c-1.4,1.5-3.5,2.7-5.7,2.7C584.7,358.8,581.7,355.5,581.7,349.6z M594.8,353.7V345c-1.6-1.5-3.1-2-4.6-2c-3,0-5.5,2.7-5.5,6.7
				c0,4.2,1.9,6.7,5.1,6.7C591.6,356.3,593.2,355.4,594.8,353.7z"/>
			<path d="M603.6,349.6c0-5.7,4.2-9.1,8.9-9.1c5,0,8,3.3,8,8.2c0,0.7-0.1,1.3-0.1,1.8h-14.8v-2.3h13l-0.8,0.8
				c0-4.1-2.1-6.2-5.3-6.2c-3.2,0-6,2.4-6,6.8c0,4.5,3,6.8,6.8,6.8c2.1,0,3.7-0.6,5.3-1.7l1.1,1.9c-1.7,1.2-4,2.1-6.8,2.1
				C607.7,358.8,603.6,355.4,603.6,349.6z"/>
			<path d="M631.6,349.3l-6.1-8.4h3.3l2.8,3.8c0.6,1,1.3,2,2.1,3h0.1c0.6-0.9,1.4-2,2-3l2.6-3.8h3.2l-6.2,8.7l6.7,8.8h-3.3l-3-4
				c-0.8-1-1.5-2.2-2.3-3.2h-0.1c-0.7,1-1.4,2.1-2.2,3.2l-2.9,4H625L631.6,349.3z"/>
		</g>
	</g>
	<line class="st0" x1="873.5" y1="478.2" x2="873.5" y2="688.2"/>
</g>
</svg>
